<?xml version="1.0" encoding="utf-8"?>
<!-- Generator: Adobe Illustrator 22.1.0, SVG Export Plug-In . SVG Version: 6.00 Build 0)  -->
<svg version="1.1" id="Layer_1" xmlns="http://www.w3.org/2000/svg" xmlns:xlink="http://www.w3.org/1999/xlink" x="0px" y="0px"
	 viewBox="0 0 43.1 40.4" style="enable-background:new 0 0 43.1 40.4;" xml:space="preserve">
<style type="text/css">
	.st0{clip-path:url(#SVGID_2_);fill:#0094D2;}
</style>
<g>
	<defs>
		<rect id="SVGID_1_" width="43.1" height="40.4"/>
	</defs>
	<clipPath id="SVGID_2_">
		<use xlink:href="#SVGID_1_"  style="overflow:visible;"/>
	</clipPath>
	<path class="st0" d="M42.4,2.4c-0.9-0.9-2.5-0.9-3.4,0L19.4,21.9L14,16.4c-0.9-0.9-2.5-0.9-3.4,0c-0.9,0.9-0.9,2.5,0,3.4l7.1,7.1
		c0,0,0,0,0,0c0,0,0,0,0,0c0.9,0.9,2.5,0.9,3.4,0L42.4,5.8C43.3,4.9,43.3,3.3,42.4,2.4"/>
	<path class="st0" d="M36.1,17.1c0.2,1.2,0.3,2.4,0.3,3.7c-0.3,8.7-7.4,15.5-16.2,15.5c-9,0-16.4-7.5-16.2-16.5
		C4.2,11.3,11.1,4.3,19.6,4c3.5-0.1,6.8,0.9,9.5,2.7c0.8,0.5,1.8,0.4,2.5-0.3l0,0c0.9-0.9,0.7-2.4-0.3-3.1C28.1,1.2,24.2,0,20.2,0
		C14.8,0,9.7,2.1,5.9,5.9C2.1,9.7,0,14.8,0,20.2c0,5.3,2.1,10.5,5.9,14.3c3.8,3.8,8.9,5.9,14.3,5.9c5.4,0,10.5-2.1,14.3-5.9
		c3.8-3.8,5.9-8.9,5.9-14.3c0-1.3-0.1-2.6-0.4-3.8c-0.3-1.6-2.3-2.2-3.4-1C36.1,15.8,35.9,16.5,36.1,17.1"/>
</g>
</svg>
