<?xml version="1.0" encoding="utf-8"?>
<!-- Generator: Adobe Illustrator 22.1.0, SVG Export Plug-In . SVG Version: 6.00 Build 0)  -->
<svg version="1.1" id="Layer_1" xmlns="http://www.w3.org/2000/svg" xmlns:xlink="http://www.w3.org/1999/xlink" x="0px" y="0px"
	 viewBox="0 0 45.4 57" style="enable-background:new 0 0 45.4 57;" xml:space="preserve">
<style type="text/css">
	.st0{clip-path:url(#SVGID_2_);fill:#0094D2;}
</style>
<g>
	<defs>
		<rect id="SVGID_1_" width="45.4" height="57"/>
	</defs>
	<clipPath id="SVGID_2_">
		<use xlink:href="#SVGID_1_"  style="overflow:visible;"/>
	</clipPath>
	<path class="st0" d="M6.2,18.4c-2.3,0-4.2-1.9-4.2-4.2C2,11.9,3.9,10,6.2,10s4.2,1.9,4.2,4.2C10.3,16.5,8.5,18.4,6.2,18.4"/>
	<path class="st0" d="M39.2,18.4c-2.3,0-4.2-1.9-4.2-4.2c0-2.3,1.9-4.2,4.2-4.2c2.3,0,4.2,1.9,4.2,4.2
		C43.4,16.5,41.5,18.4,39.2,18.4"/>
	<path class="st0" d="M22.7,11.3c-3.1,0-5.6-2.5-5.6-5.6C17,2.5,19.6,0,22.7,0s5.6,2.5,5.6,5.6C28.3,8.8,25.8,11.3,22.7,11.3"/>
	<path class="st0" d="M10.5,33.2l-0.7-0.7l-0.1-1L9.1,20.4h-1H4.2c-3.8,0-4.3,2.5-4.2,5.4L0.5,34l2.4,2.5l1.4,15.1
		C4.4,52.4,4.9,53,5.6,53h2.6h2.6c0.6,0,1.2-0.6,1.3-1.4l1.3-14.2l-0.1-1.5L10.5,33.2z"/>
	<path class="st0" d="M41.1,20.4h-3.9h-1l-0.6,11.1l-0.1,1l-0.7,0.7l-2.7,2.7l-0.1,1.4l1.3,14.3c0.1,0.8,0.6,1.4,1.3,1.4h2.6h2.6
		c0.6,0,1.2-0.6,1.3-1.4l1.4-15.1l2.4-2.5l0.5-8.3C45.5,22.8,45.3,20.4,41.1,20.4"/>
	<path class="st0" d="M28,12.8h-0.5h-1h-7.7h-0.2h-1.3c-5.2,0-5.8,3.3-5.7,7.3l0.6,11.2l3.3,3.4l1.9,20.4c0.1,1.1,0.9,1.8,1.7,1.8
		h3.5h3.5c0.9,0,1.6-0.8,1.7-1.8l1.9-20.4l3.3-3.4l0.6-11.2C33.8,16.2,33.7,12.8,28,12.8"/>
</g>
</svg>
