<?xml version="1.0" encoding="utf-8"?>
<!-- Generator: Adobe Illustrator 22.1.0, SVG Export Plug-In . SVG Version: 6.00 Build 0)  -->
<svg version="1.1" id="Layer_1" xmlns="http://www.w3.org/2000/svg" xmlns:xlink="http://www.w3.org/1999/xlink" x="0px" y="0px"
	 viewBox="0 0 106 49.1" style="enable-background:new 0 0 106 49.1;" xml:space="preserve">
<style type="text/css">
	.st0{clip-path:url(#SVGID_2_);fill:#FFFFFF;}
</style>
<g>
	<defs>
		<rect id="SVGID_1_" width="106" height="49.1"/>
	</defs>
	<clipPath id="SVGID_2_">
		<use xlink:href="#SVGID_1_"  style="overflow:visible;"/>
	</clipPath>
	<path class="st0" d="M3.6,44.2l-0.4-1.8H1.8l-0.3,1.8H0.6l1.3-6.7h1.3l1.4,6.7H3.6z M2.5,38.1c-0.2,1.2-0.4,2.4-0.6,3.5h1.2
		C2.9,40.5,2.6,39.3,2.5,38.1"/>
	<path class="st0" d="M7.4,44.2v-3.8c0-0.3-0.1-0.6-0.5-0.6c-0.3,0-0.6,0.2-0.9,0.5v4H5.2V39H6l0,0.5c0.3-0.3,0.7-0.6,1.1-0.6
		c0.8,0,1.1,0.5,1.1,1.2v4H7.4z"/>
	<path class="st0" d="M10.3,43.9c0.2,0,0.4-0.1,0.6-0.3c0.1-0.1,0.2-0.4,0.4-0.8l2.2-5.5h0.3l2.2,5.3c0.3,0.6,0.4,1,0.6,1.1
		c0.1,0.2,0.3,0.3,0.5,0.2v0.3h-3.2v-0.3c0.3,0,0.5,0,0.6-0.1c0.1,0,0.2-0.1,0.2-0.3c0-0.1,0-0.2-0.1-0.4c0-0.1-0.1-0.2-0.1-0.3
		l-0.3-0.6h-2.2c-0.1,0.4-0.2,0.7-0.3,0.8c-0.1,0.3-0.1,0.4-0.1,0.6c0,0.1,0.1,0.2,0.3,0.3c0.1,0,0.3,0.1,0.5,0.1v0.3h-2V43.9z
		 M14,41.8l-1-2.3H13l-0.9,2.3H14z"/>
	<path class="st0" d="M17.1,43.9c0.2,0,0.3-0.1,0.4-0.1c0.1-0.1,0.1-0.2,0.1-0.5v-2.9c0-0.2,0-0.3-0.1-0.4c-0.1-0.1-0.2-0.1-0.4-0.2
		v-0.2h1.9v0.7c0.2-0.2,0.4-0.4,0.6-0.6c0.2-0.2,0.5-0.2,0.8-0.2c0.4,0,0.8,0.1,1,0.3c0.2,0.2,0.4,0.6,0.4,1.2v2.4
		c0,0.2,0,0.4,0.1,0.4c0.1,0.1,0.2,0.1,0.4,0.1v0.2h-2.3v-0.2c0.2,0,0.3-0.1,0.4-0.1c0.1-0.1,0.1-0.2,0.1-0.4v-2.4
		c0-0.2,0-0.4-0.1-0.5c-0.1-0.2-0.2-0.3-0.5-0.3c-0.2,0-0.3,0.1-0.5,0.2c-0.1,0.1-0.3,0.3-0.3,0.4v2.7c0,0.2,0,0.4,0.1,0.4
		c0.1,0.1,0.2,0.1,0.4,0.1v0.2h-2.4V43.9z"/>
	<path class="st0" d="M22.6,40v-0.3c0.1-0.1,0.2-0.2,0.3-0.3c0.2-0.2,0.3-0.3,0.5-0.5c0.3-0.3,0.6-0.7,0.8-1.1h0.3v1.7h1V40h-1v3
		c0,0.1,0,0.3,0.1,0.4c0.1,0.1,0.2,0.2,0.3,0.2c0.1,0,0.2,0,0.3-0.1c0.1-0.1,0.2-0.2,0.3-0.4l0.2,0.1c-0.1,0.3-0.3,0.5-0.4,0.7
		c-0.3,0.3-0.6,0.5-1,0.5c-0.2,0-0.4,0-0.6-0.1c-0.3-0.2-0.5-0.5-0.5-0.9V40H22.6z"/>
	<path class="st0" d="M25.9,43.9c0.2,0,0.3-0.1,0.4-0.1c0.1-0.1,0.1-0.2,0.1-0.5v-5.1c0-0.2,0-0.3-0.1-0.4c-0.1-0.1-0.2-0.1-0.4-0.2
		v-0.2h1.9v2.8c0.2-0.2,0.4-0.4,0.6-0.6c0.2-0.1,0.5-0.2,0.8-0.2c0.4,0,0.7,0.1,1,0.3c0.2,0.2,0.4,0.6,0.4,1.1v2.4
		c0,0.2,0,0.4,0.1,0.4c0.1,0.1,0.2,0.1,0.4,0.2v0.2h-2.3v-0.2c0.2,0,0.3-0.1,0.4-0.1c0.1-0.1,0.1-0.2,0.1-0.4v-2.4
		c0-0.2,0-0.4-0.1-0.5c-0.1-0.2-0.2-0.3-0.5-0.3c-0.2,0-0.4,0.1-0.5,0.2c-0.2,0.2-0.3,0.3-0.3,0.3v2.7c0,0.2,0,0.4,0.1,0.4
		c0.1,0.1,0.2,0.1,0.4,0.1v0.2h-2.4V43.9z"/>
	<path class="st0" d="M32.2,40.1c0.4-0.4,0.9-0.6,1.5-0.6c0.3,0,0.6,0.1,0.9,0.3c0.3,0.2,0.5,0.4,0.7,0.7c0.1,0.2,0.2,0.5,0.2,0.9
		c0,0.2,0,0.3,0,0.4H33c0,0.4,0.1,0.7,0.2,1c0.2,0.5,0.5,0.8,1,0.8c0.2,0,0.5-0.1,0.7-0.2c0.1-0.1,0.3-0.2,0.5-0.4l0.2,0.1
		c-0.3,0.5-0.7,0.9-1.1,1.1c-0.3,0.1-0.6,0.2-0.9,0.2c-0.5,0-1-0.2-1.4-0.6c-0.4-0.4-0.6-1-0.6-1.9C31.6,41.1,31.8,40.5,32.2,40.1
		 M34.3,41.4c0-0.6-0.1-1-0.1-1.2c-0.1-0.2-0.3-0.4-0.5-0.4c-0.3,0-0.4,0.1-0.5,0.4C33,40.4,33,40.8,33,41.4H34.3z"/>
	<path class="st0" d="M35.9,43.9c0.2,0,0.3-0.1,0.4-0.1c0.1-0.1,0.2-0.2,0.2-0.5v-2.9c0-0.2,0-0.4-0.1-0.4c-0.1-0.1-0.2-0.1-0.4-0.2
		v-0.2h1.9v0.7c0.2-0.2,0.3-0.4,0.5-0.5c0.3-0.2,0.6-0.3,1-0.3c0.4,0,0.7,0.1,0.9,0.3c0.1,0.1,0.2,0.3,0.4,0.5h0.1
		c0.2-0.2,0.4-0.4,0.5-0.5c0.3-0.2,0.6-0.3,0.9-0.3c0.4,0,0.7,0.1,0.9,0.3c0.3,0.2,0.4,0.6,0.4,1.1v2.5c0,0.2,0,0.4,0.1,0.4
		c0.1,0.1,0.2,0.1,0.4,0.1v0.2h-2.4v-0.2c0.2,0,0.3-0.1,0.4-0.1c0.1-0.1,0.1-0.2,0.1-0.4v-2.4c0-0.3,0-0.5-0.1-0.6
		c-0.1-0.1-0.2-0.2-0.4-0.2c-0.2,0-0.4,0.1-0.5,0.2c-0.2,0.2-0.3,0.3-0.3,0.3v2.7c0,0.2,0,0.4,0.1,0.4c0.1,0.1,0.2,0.1,0.4,0.1v0.2
		h-2.3v-0.2c0.2,0,0.3-0.1,0.4-0.1c0.1-0.1,0.1-0.2,0.1-0.4v-2.4c0-0.3,0-0.5-0.1-0.6c-0.1-0.1-0.2-0.2-0.4-0.2
		c-0.2,0-0.4,0.1-0.6,0.3c-0.2,0.2-0.3,0.3-0.3,0.3v2.7c0,0.2,0,0.4,0.1,0.4c0.1,0.1,0.2,0.1,0.4,0.1v0.2h-2.4V43.9z"/>
	<path class="st0" d="M48.1,44.3c-1.2,0-1.7-0.6-1.7-1.8v-3.3c0-1.1,0.6-1.8,1.7-1.8c1,0,1.7,0.5,1.7,1.5v0.8H49v-0.4
		c0-0.6-0.1-1.1-0.8-1.1c-0.6,0-0.9,0.4-0.9,0.9v3.3c0,0.6,0.2,1.1,0.9,1.1c1,0,0.9-0.9,0.9-1.6h0.9v0.7
		C49.9,43.7,49.3,44.3,48.1,44.3"/>
	<path class="st0" d="M52.2,44.3c-1,0-1.6-0.6-1.6-1.6v-2.3c0-1,0.7-1.5,1.6-1.5c1,0,1.6,0.5,1.6,1.5v2.3
		C53.8,43.7,53.2,44.3,52.2,44.3 M53,40.4c0-0.5-0.3-0.8-0.8-0.8c-0.5,0-0.8,0.3-0.8,0.8v2.3c0,0.5,0.3,0.8,0.8,0.8
		c0.5,0,0.8-0.3,0.8-0.8V40.4z"/>
	<path class="st0" d="M58.8,44.2v-3.8c0-0.3-0.1-0.7-0.5-0.7c-0.3,0-0.6,0.2-0.8,0.5v4h-0.8v-3.8c0-0.4-0.2-0.6-0.5-0.6
		c-0.3,0-0.5,0.2-0.7,0.4v4h-0.8V39h0.8l0,0.4c0.3-0.3,0.6-0.5,1.1-0.5c0.4,0,0.8,0.2,1,0.6c0.3-0.4,0.7-0.6,1.2-0.6
		c0.8,0,1,0.6,1,1.3v3.9H58.8z"/>
	<path class="st0" d="M62.7,44.3c-0.5,0-0.8-0.2-1.2-0.5v2.4h-0.8V39h0.8l0,0.4c0.3-0.3,0.7-0.5,1.2-0.5c0.8,0,1.2,0.7,1.2,1.4v2.5
		C63.8,43.5,63.5,44.3,62.7,44.3 M63,40.5c0-0.4-0.2-0.8-0.6-0.8c-0.3,0-0.7,0.2-0.9,0.4v3c0.2,0.2,0.6,0.4,0.9,0.4
		c0.6,0,0.6-0.4,0.6-0.8V40.5z"/>
	<path class="st0" d="M66.9,44.2l0-0.4c-0.3,0.3-0.7,0.5-1.1,0.5c-0.8,0-1.3-0.5-1.3-1.3v-0.3c0-1.3,1.3-1.6,2.3-1.7v-0.7
		c0-0.4-0.2-0.7-0.7-0.7c-0.6,0-0.7,0.4-0.7,0.9h-0.8v-0.2c0-1,0.6-1.4,1.5-1.4c0.9,0,1.5,0.4,1.5,1.4v3.9H66.9z M66.8,41.6
		c-0.6,0.1-1.5,0.3-1.5,1.1v0.2c0,0.4,0.2,0.7,0.7,0.7c0.3,0,0.6-0.2,0.8-0.4V41.6z"/>
	<path class="st0" d="M70.8,44.2v-3.8c0-0.3-0.1-0.6-0.5-0.6c-0.3,0-0.6,0.2-0.9,0.5v4h-0.8V39h0.8l0,0.5c0.3-0.3,0.7-0.6,1.1-0.6
		c0.8,0,1.1,0.5,1.1,1.2v4H70.8z"/>
	<path class="st0" d="M74.2,44.8c-0.2,0.9-0.5,1.4-1.6,1.4c-0.1,0-0.3,0-0.5,0v-0.7c0.1,0,0.2,0,0.4,0c0.5,0,0.7-0.3,0.8-0.8
		l0.2-0.7l-1.3-5h0.9c0.3,1.4,0.6,2.8,0.9,4.2c0.2-1.4,0.6-2.8,0.9-4.2h0.8L74.2,44.8z"/>
	<path class="st0" d="M34,20.5c0,0.1-0.8,4.6-0.8,4.7h1.2c1.1,0,1.9-0.6,1.9-1.6c0-0.5-0.2-0.8-0.7-0.9l-0.2-0.1l0.2-0.1
		c0.6-0.2,0.9-0.5,0.9-1.1c0-0.6-0.6-1-1.5-1H34z M34.2,22.4l0.3-1.5h0.4c0.7,0,0.9,0.4,0.9,0.7c0,0.4-0.2,0.9-1.1,0.9L34.2,22.4
		L34.2,22.4z M33.8,24.7l0.3-1.8h0.5c0.7,0,1,0.2,1,0.7c0,0.7-0.4,1.1-1.3,1.1L33.8,24.7L33.8,24.7z"/>
	<polygon class="st0" points="38.4,25.3 36.5,25.3 37.2,21.6 37.7,21.6 37.1,24.8 38.5,24.8 	"/>
	<path class="st0" d="M41.8,23.8c-0.2,1-0.8,1.6-1.7,1.6c-0.7,0-1.1-0.5-1.1-1.2c0-0.1,0-0.3,0-0.5l0.4-2.1h0.5l-0.4,2.2
		c0,0.1,0,0.3,0,0.4c0,0.5,0.2,0.7,0.7,0.7c0.6,0,0.9-0.4,1.1-1.1l0.4-2.2h0.5L41.8,23.8z"/>
	<polygon class="st0" points="44.9,22.1 43.5,22.1 43.3,23.1 44.2,23.1 44.1,23.6 43.2,23.6 43,24.8 44.4,24.8 44.3,25.3 42.4,25.3 
		43,21.6 45,21.6 	"/>
	<path class="st0" d="M46.5,20.9c-0.8,0.6-1.2,1.5-1.2,2.5c0,1.1,0.7,1.9,1.7,1.9c0.5,0,0.9-0.1,1.3-0.4c0,0-0.1-0.4-0.1-0.5
		c-0.4,0.2-0.8,0.4-1.2,0.4c-0.7,0-1.2-0.6-1.2-1.4c0-1.3,0.9-2.4,1.9-2.4c0.3,0,0.6,0.1,0.9,0.3c0-0.1,0.2-0.5,0.3-0.6
		c-0.3-0.2-0.7-0.3-1.1-0.3C47.4,20.5,47,20.6,46.5,20.9"/>
	<path class="st0" d="M51.9,22.5c0,0.5-0.2,0.8-0.7,0.9v0c0.3,0.1,0.4,0.3,0.4,0.7c0,0.1,0,0.2,0,0.4l-0.1,0.8h-0.5
		c0.1-0.6,0.2-1,0.2-1.2c0-0.3-0.2-0.4-0.7-0.4h-0.4l-0.3,1.6h-0.5l0.7-3.7h0.8C51.4,21.6,51.9,21.9,51.9,22.5 M51.3,22.5
		c0-0.3-0.3-0.5-0.8-0.5h-0.3L50,23.2h0.3C51,23.2,51.3,23,51.3,22.5"/>
	<path class="st0" d="M55.3,24.4c-0.4,0.6-1,0.9-1.6,0.9c-0.8,0-1.4-0.7-1.4-1.6c0-0.5,0.1-0.9,0.4-1.3c0.4-0.6,1-1,1.7-1
		c0.3,0,0.6,0.1,0.8,0.3c0.4,0.3,0.6,0.8,0.6,1.3C55.7,23.6,55.6,24.1,55.3,24.4 M54.2,22c-0.3,0-0.7,0.2-1,0.5
		c-0.3,0.4-0.5,0.8-0.5,1.2c0,0.7,0.4,1.1,0.9,1.1c0.3,0,0.7-0.2,1-0.5c0.3-0.4,0.5-0.8,0.5-1.3C55.1,22.5,54.8,22,54.2,22"/>
	<path class="st0" d="M58,22.4c-0.2-0.2-0.4-0.3-0.7-0.3c-0.3,0-0.6,0.2-0.6,0.5c0,0.2,0.1,0.3,0.4,0.5l0.3,0.2
		c0.4,0.2,0.6,0.6,0.6,1c0,0.7-0.5,1.2-1.3,1.2c-0.5,0-0.8-0.2-1-0.6l0.4-0.3c0.1,0.3,0.4,0.4,0.7,0.4c0.4,0,0.6-0.3,0.6-0.7
		c0-0.2-0.1-0.4-0.3-0.5l-0.3-0.1c-0.4-0.2-0.6-0.5-0.6-0.9c0-0.6,0.5-1.1,1.2-1.1c0.3,0,0.6,0.1,0.8,0.3L58,22.4z"/>
	<path class="st0" d="M60.7,22.4C60.5,22.1,60.2,22,60,22c-0.3,0-0.6,0.2-0.6,0.5c0,0.2,0.1,0.3,0.4,0.5l0.3,0.2
		c0.4,0.2,0.6,0.6,0.6,1c0,0.7-0.5,1.2-1.3,1.2c-0.5,0-0.8-0.2-1-0.6l0.4-0.3c0.1,0.3,0.4,0.4,0.7,0.4c0.4,0,0.6-0.3,0.6-0.7
		c0-0.2-0.1-0.4-0.3-0.5l-0.3-0.1c-0.4-0.2-0.6-0.5-0.6-0.9c0-0.6,0.5-1.1,1.2-1.1c0.3,0,0.6,0.1,0.8,0.3L60.7,22.4z"/>
	<path class="st0" d="M64.8,20.5c0,0.1-0.8,4.6-0.8,4.7h1.2c1.1,0,1.9-0.6,1.9-1.6c0-0.5-0.2-0.8-0.7-0.9l-0.2-0.1l0.2-0.1
		c0.6-0.2,0.9-0.5,0.9-1.1c0-0.6-0.6-1-1.5-1H64.8z M65,22.4l0.3-1.5h0.4c0.7,0,0.9,0.4,0.9,0.7c0,0.4-0.2,0.9-1.1,0.9L65,22.4
		L65,22.4z M64.6,24.7l0.3-1.8h0.5c0.7,0,1,0.2,1,0.7c0,0.7-0.4,1.1-1.3,1.1L64.6,24.7L64.6,24.7z"/>
	<polygon class="st0" points="69.3,25.3 67.4,25.3 68.1,21.6 68.6,21.6 68.1,24.8 69.4,24.8 	"/>
	<path class="st0" d="M72.7,23.8c-0.2,1-0.8,1.6-1.7,1.6c-0.7,0-1.1-0.5-1.1-1.2c0-0.1,0-0.3,0-0.5l0.4-2.1h0.5l-0.4,2.2
		c0,0.1,0,0.3,0,0.4c0,0.5,0.2,0.7,0.7,0.7c0.6,0,0.9-0.4,1.1-1.1l0.4-2.2h0.5L72.7,23.8z"/>
	<polygon class="st0" points="75.8,22.1 74.4,22.1 74.2,23.1 75.2,23.1 75.1,23.6 74.2,23.6 73.9,24.8 75.3,24.8 75.2,25.3 
		73.3,25.3 74,21.6 75.9,21.6 	"/>
	<path class="st0" d="M76.9,21.8c0,0.5,0.2,0.9,0.8,1.2l0.4,0.2c0.3,0.2,0.5,0.4,0.5,0.7c0,0.6-0.4,1-0.9,1c-0.4,0-0.7-0.2-0.9-0.5
		c-0.1,0.1-0.4,0.3-0.5,0.4c0.2,0.5,0.6,0.7,1.2,0.7c1,0,1.6-0.6,1.6-1.5c0-0.5-0.3-0.9-0.8-1.2L78,22.4c-0.3-0.2-0.5-0.3-0.5-0.6
		c0-0.4,0.3-0.8,0.8-0.8c0.3,0,0.6,0.1,0.9,0.4c0.1-0.1,0.3-0.6,0.3-0.6c-0.3-0.2-0.6-0.3-1-0.3C77.5,20.4,76.9,21,76.9,21.8"/>
	<polygon class="st0" points="82.3,25.3 81.8,25.3 82.1,23.6 80.6,23.6 80.3,25.3 79.8,25.3 80.4,21.6 81,21.6 80.7,23.1 82.2,23.1 
		82.5,21.6 83,21.6 	"/>
	<polygon class="st0" points="84,25.3 83.4,25.3 84.1,21.6 84.6,21.6 	"/>
	<polygon class="st0" points="87.5,22.1 86.1,22.1 85.9,23.1 86.8,23.1 86.7,23.6 85.8,23.6 85.6,24.8 87,24.8 86.9,25.3 85,25.3 
		85.6,21.6 87.6,21.6 	"/>
	<polygon class="st0" points="89.5,25.3 87.6,25.3 88.3,21.6 88.8,21.6 88.2,24.8 89.6,24.8 	"/>
	<path class="st0" d="M93.1,23.2c0,1.3-0.8,2.1-2.1,2.1H90l0.7-3.7h0.7C92.4,21.6,93.1,22.2,93.1,23.2 M92.5,23.1
		c0-0.7-0.4-1.1-1.1-1.1h-0.3l-0.5,2.8H91C91.9,24.8,92.5,24.2,92.5,23.1"/>
	<path class="st0" d="M2.6,3c0.3-1.5,0-2-2.2-2.3l0.1-0.4h12.3l-0.4,3.2h-0.8c0-1.4,0.1-2.2-2-2.2H6.7C5.3,1.3,5.1,1.6,4.9,3L4,8.1
		h3.3c2.2,0,2.5-0.9,2.9-2.2h0.6l-0.9,5.4H9.2c0-1.5,0.1-2.2-2.2-2.2H3.8l-1.1,6.1c-0.3,1.5,0,1.5,1.9,1.5h2.8c1.8,0,2-0.5,2.7-2.5
		h0.8l-0.8,3.5H0L2.6,3z"/>
	<path class="st0" d="M13.7,8.2c0.3-1.6-0.9-1.6-1.7-1.7L12.1,6l4.1-0.6l-0.6,3.1h0.1c0.5-0.9,2.2-3.1,4.3-3.1
		c2.4,0,2.9,1.3,2.5,3.1h0.1c0.5-0.9,2-3.1,4.3-3.1c3.1,0,2.7,2.1,2.4,4.1l-1.5,8.2h-2l1.4-7.8C27.5,8,27.8,6.7,26,6.7
		c-1.4,0-3.6,2.4-4,4.8l-1.1,6.3h-2l1.5-8.4c0.2-1.4,0.5-2.7-1.2-2.7c-1.7,0-3.7,2.8-4.1,4.9L14,17.8h-2L13.7,8.2z"/>
	<path class="st0" d="M33.3,10.5c0.3-1.9,1.8-4.1,3.6-4.1c2.4,0,2.3,3.5,1.9,5.3c-0.4,2.1-1.3,5.3-3.7,5.3c-2.3,0-2.4-2.9-2.1-4.6
		L33.3,10.5z M29.1,23.3h2l1.3-7.3h0.1c0.2,0.9,1.1,2.1,2.9,2.1c3.4,0,5.1-3,5.7-6.4c0.6-3.6-0.4-6.3-3.7-6.3c-1.7,0-3,1.2-3.5,2
		h-0.1l0.3-2L30.1,6L30,6.4c0.7,0.1,2,0.1,1.7,1.7L29.1,23.3z"/>
	<path class="st0" d="M43.3,8.2c0.3-1.6-0.9-1.6-1.6-1.7L41.7,6l4.1-0.6l-2.2,12.4h-2L43.3,8.2z M43.9,1.5C44,0.7,44.8,0,45.6,0
		c0.8,0,1.3,0.7,1.2,1.5c-0.2,0.9-0.9,1.5-1.7,1.5C44.3,2.9,43.7,2.3,43.9,1.5"/>
	<path class="st0" d="M48.1,8.3c0.3-1.6-0.9-1.7-1.7-1.8L46.5,6l4.1-0.6l-0.5,3.1h0.1c0.5-1.1,1.5-3.1,4-3.1c0.1,0,0.2,0,0.2,0
		L54,7.6c-0.3-0.1-0.5-0.2-0.8-0.2c-2.5,0-3.3,2.5-3.6,4.1l-1.1,6.2h-2L48.1,8.3z"/>
	<path class="st0" d="M61,9.4h-5.3c0.2-0.9,1-3,3.4-3c1.6,0,2.2,1.3,2,2.8L61,9.4z M61.7,16.7c-0.6,0.2-1.3,0.3-1.9,0.3
		c-3.6,0-4.8-3.7-4.3-6.2l0.1-0.5h7.6l0.1-0.4c0.5-3.1-1.1-4.5-3.6-4.5c-3.8,0-5.6,2.2-6.3,5.9c-0.8,4.3,1.1,6.7,4.9,6.7
		c1.6,0,3-0.3,3.3-0.5L61.7,16.7z"/>
	<path class="st0" d="M95.7,17.2c0,0.4,0.3,0.8,0.8,0.8c0.4,0,0.8-0.3,0.8-0.8c0-0.4-0.3-0.8-0.8-0.8C96,16.4,95.7,16.7,95.7,17.2
		 M95.8,17.2c0-0.4,0.3-0.6,0.6-0.6c0.4,0,0.6,0.3,0.6,0.6c0,0.4-0.3,0.6-0.6,0.6C96.1,17.8,95.8,17.5,95.8,17.2"/>
	<path class="st0" d="M96.3,17.5h-0.1v-0.8h0.4c0.1,0,0.2,0,0.2,0.2c0,0.1-0.1,0.2-0.1,0.2c0,0,0.1,0,0.1,0.1l0,0.1c0,0,0,0.1,0,0.1
		v0h-0.1c0,0,0-0.2,0-0.2c0-0.1,0-0.1-0.1-0.1h-0.2V17.5z M96.3,17.1h0.2c0.1,0,0.2,0,0.2-0.1c0-0.1-0.1-0.1-0.1-0.1h-0.3V17.1z"/>
	<path class="st0" d="M79.7,17.1c0,0.4,0.3,0.8,0.8,0.8c0.4,0,0.8-0.3,0.8-0.8c0-0.4-0.3-0.8-0.8-0.8C80.1,16.3,79.7,16.7,79.7,17.1
		 M79.9,17.1c0-0.4,0.3-0.6,0.6-0.6c0.4,0,0.6,0.3,0.6,0.6c0,0.4-0.3,0.6-0.6,0.6C80.1,17.7,79.9,17.4,79.9,17.1"/>
	<path class="st0" d="M80.3,17.4h-0.1v-0.8h0.4c0.1,0,0.2,0,0.2,0.2c0,0.1-0.1,0.2-0.1,0.2c0,0,0.1,0,0.1,0.1l0,0.1c0,0,0,0.1,0,0.1
		v0h-0.1c0,0,0-0.2,0-0.2c0-0.1,0-0.1-0.1-0.1h-0.2V17.4z M80.3,17h0.2c0.1,0,0.2,0,0.2-0.1c0-0.1-0.1-0.1-0.1-0.1h-0.3V17z"/>
	<path class="st0" d="M75.1,10.5c-0.1,0-1.7,2.4-1.7,2.4c0.4,0.2,1,0.3,1.7,0.3c0.6,0,1.2-0.1,1.7-0.3
		C76.8,12.9,75.3,10.5,75.1,10.5"/>
	<path class="st0" d="M73.5,8.6c-0.1,0-2.3-0.2-2.3-0.2c-0.3,1.5,0.2,2.6,0.9,3.5c0,0,1.4-2.7,1.6-3C73.8,8.6,73.7,8.6,73.5,8.6"/>
	<path class="st0" d="M78.2,6.8c-0.5-0.5-1.1-1.1-1.9-1.2C76.5,6.3,76,6.4,76,6.8H78.2z"/>
	<path class="st0" d="M74,5.5c-0.7,0.2-1.4,0.6-1.9,1.2h2.1C74.2,6.4,73.7,6.3,74,5.5"/>
	<path class="st0" d="M76.7,8.6c-0.2,0-0.3,0-0.2,0.3c0.2,0.3,1.6,3,1.6,3c0.7-0.9,1.1-2,0.9-3.5C79,8.4,76.9,8.6,76.7,8.6"/>
	<path class="st0" d="M79.1,5.4l0-4.5h-7.7v4.5h-4.8l0,7.7h4.8v4.7h7.7V13h4.7V5.4H79.1z M71.9,6c0.8-0.8,2-1.3,3.3-1.4
		c1.2,0,2.3,0.5,3.2,1.3c0.4,0.4,0.8,0.9,1,1.4l-3.2,0c-0.3,0-0.6-0.1-0.7-0.2c-0.2-0.2-0.2-0.5,0.1-0.8c0.4-0.5,0.1-1-0.4-1
		c-0.5,0-0.9,0.5-0.4,1C75,6.6,75,6.9,74.8,7.1c-0.1,0.1-0.4,0.2-0.7,0.2l-3.1,0C71.2,6.9,71.5,6.4,71.9,6 M70.6,9.3
		c0-0.5,0.1-1.1,0.3-1.6c1.1,0,2.1,0.2,2.7,0.2c0.7,0,1.1,0.4,0.7,1.2c-0.4,0.8-1.7,3.2-2,3.7C71.2,12,70.6,10.7,70.6,9.3
		 M75.2,13.9c-1,0-1.9-0.3-2.6-0.8c0.4-0.6,2.1-3,2.2-3.2c0.1-0.2,0.2-0.3,0.4-0.3c0.2,0,0.3,0.1,0.4,0.3c0.1,0.2,2.2,3.2,2.2,3.2
		C77,13.6,76.1,13.9,75.2,13.9 M78,12.9c-0.1-0.1-1.6-2.9-2-3.8c-0.4-0.8,0-1.2,0.7-1.2c0.6,0,1.7-0.2,2.8-0.2
		c0.2,0.5,0.3,1,0.3,1.6C79.8,10.8,79.1,12.1,78,12.9"/>
	<path class="st0" d="M92.4,5.8c0.1,0,0.1-0.1,0.1-0.1c-0.2-0.1-0.5,0-0.5,0s0.1,0,0.2,0.1C92.2,5.8,92.3,5.8,92.4,5.8"/>
	<path class="st0" d="M93.2,4.3c-1.8,0-3.7-0.3-4.6-0.7c-0.3,0.5-0.4,1.8-0.4,2.7c0.1,4.9,2.4,7.2,2.7,7.6c0.4,0.5,2,2,2.3,2.1
		c0.3-0.1,1.9-1.5,2.3-2.1c0.3-0.4,2.5-2.8,2.7-7.6c0-0.9,0-2.2-0.4-2.7C96.9,4.1,95,4.3,93.2,4.3 M92.6,14.7
		C92.5,14.7,92.5,14.7,92.6,14.7c-0.2,0-0.2-0.2-0.2-0.3c0-0.3,0.2-0.6,0.4-0.7l0,0.5C92.6,14.3,92.6,14.6,92.6,14.7 M93.3,13.9
		c0,0.5,0,1-0.1,1c0,0-0.2,0.1-0.4,0c0-0.1,0-0.4,0-0.7c0-0.3,0-0.8,0-1.3c0.1,0,0.1,0,0.2,0c0.1,0,0.2,0.1,0.3,0.2
		C93.4,13.3,93.3,13.7,93.3,13.9 M93.4,13.9v-0.6c0-0.1,0-0.2-0.1-0.3c-0.1-0.1-0.1-0.1-0.2-0.2c-0.1,0-0.1-0.1-0.3-0.1
		c-1.2-0.3-0.9-1.4-0.2-1.4c0,0.1,0,0.2,0,0.3c0,0.1,0,0.2,0,0.3c-0.2,0.1,0,0.1,0,0.1c0.1,0,0.3,0.1,0.4,0.2c0.1,0,0.3,0.1,0.4,0.2
		C94.2,12.7,94.1,13.5,93.4,13.9 M93.4,11.9c0,0.1,0,0.3,0,0.4c-0.1,0-0.2-0.1-0.3-0.1c-0.1-0.1-0.2-0.1-0.3-0.2c0,0,0-0.1,0-0.2
		l0-0.2l0-0.3c0-0.1,0-0.3,0-0.4c0.1,0,0.2,0,0.3,0c0.2,0,0.2,0,0.4,0c0,0,0,0.2,0,0.2c0,0.1,0,0.2,0,0.3
		C93.4,11.7,93.4,11.7,93.4,11.9 M93.5,11.9c0-0.1,0-0.3,0-0.5c0-0.1,0-0.1,0-0.2c0.1-0.1,0.3-0.1,0.1-0.3c-0.1-0.1-0.3-0.1-0.6-0.1
		c-0.1,0-0.2,0-0.7-0.1c-0.9-0.2-0.9-1.4-0.3-1.6l0.2,0.5l0.2,0.4c0.3,0,0.4,0,0.7,0.1c0.1,0,0.2,0,0.3,0.1
		C94.8,10.4,94.5,11.8,93.5,11.9 M92.2,8.9l0.3-0.5l0.8,0.1l0,1.4l-0.7-0.1l-0.2-0.5L92.2,8.9z M93.6,9.8c-0.1-0.5,0-0.9,0-0.9
		c0.4,0,0.1-0.5,0-0.5c-0.2,0-0.3,0-0.5-0.1c-0.2,0-0.5,0-0.6-0.1c-2.5-0.3-2.1-2.6-0.9-2.8c0.9-0.1,1.4,0.2,1.5,0.6
		c0,0-0.3,0.1-0.5,0.1c-0.4,0-0.6,0-0.6,0c0.1,0.1,0.6,0.2,0.8,0.4c-0.2,0.1-0.4,0.1-0.7,0.1c-0.2,0-0.4-0.1-0.5-0.1
		c-0.1,0.2-0.2,0.7,0.9,0.9c0.2,0,0.3,0.1,0.5,0.1c0.2,0,0.4,0.1,0.6,0.1c0.1,0,0.1,0,0.2,0.1C95.2,8,94.7,9.8,93.6,9.8 M94.7,6.1
		c-0.6,0.6-1,1-1.1,1.1c0,0-0.1,0.2-0.2,0.2l-0.9-0.2c0-0.2,0-0.4,0-0.6c0.2,0,0.2,0,0.3-0.1l0-0.1c0.3,0.1,0.5,0.1,0.6,0.1
		l-0.1-0.1c-0.1,0-0.3-0.1-0.4-0.1c0.2,0,0.3-0.1,0.3-0.1s0-0.1-0.1-0.3c-0.1-0.3-0.5-0.4-0.5-0.4c-0.1-0.1,0-0.2,0-0.2
		c0-0.3,0.2-0.2,0.5-0.1c0.1,0,0.1,0.1,0.1,0.1c0.2,0.1,0.4,0.2,0.4,0.3c0,0,0,0.8,0.1,0.7c0.2-0.1,0.5-0.4,0.7-0.5
		C94.6,5.5,94.9,5.8,94.7,6.1"/>
	<path class="st0" d="M98.7,1.1c-1.6,0.8-3.2,1.3-5.6,1.3c-2.4,0-4-0.4-5.6-1.3c-0.7,1.1-1,2.8-1,4.8c0,5.4,3,9.1,3.8,9.9
		c0.8,0.8,2.2,2,2.8,2.2c0.6-0.1,2.1-1.4,2.8-2.2c0.8-0.8,3.8-4.4,3.8-9.9C99.8,3.9,99.4,2.3,98.7,1.1 M95.7,14.4
		c-0.5,0.6-2.2,2.1-2.5,2.2c-0.3-0.1-2.1-1.6-2.5-2.2c-0.3-0.4-2.9-3.6-2.9-8.5c0-1,0.2-2.6,0.5-3.1c1,0.5,2.9,1,4.9,1
		c2,0,3.9-0.5,4.9-1c0.4,0.5,0.5,2.1,0.5,3.1C98.6,10.8,96,13.9,95.7,14.4"/>
	<polygon class="st0" points="0.1,31 0.1,32.8 99.1,32.8 99.7,31 	"/>
</g>
</svg>
