<?xml version="1.0" encoding="utf-8"?>
<!-- Generator: Adobe Illustrator 22.1.0, SVG Export Plug-In . SVG Version: 6.00 Build 0)  -->
<svg version="1.1" id="Layer_1" xmlns="http://www.w3.org/2000/svg" xmlns:xlink="http://www.w3.org/1999/xlink" x="0px" y="0px"
	 viewBox="0 0 166.3 73.1" style="enable-background:new 0 0 166.3 73.1;" xml:space="preserve">
<style type="text/css">
	.st0{fill:#AE529E;}
	.st1{fill:#B1BA1E;}
	.st2{fill:#005CB9;}
	.st3{fill:none;}
</style>
<path class="st0" d="M54.2,31c-8.8-2.9-13.2,2.8-15.4,2.8c-2.1,0-6.9-6.4-15.4-2.8c-7.3,3.1-10.7,12-6.7,20.2h7.2l2.7-7.7
	c0.3-0.8,1.1-1.3,1.9-1.3c0.8,0,1.5,0.6,1.8,1.4l2.6,8.8l4.2-14.7c0.2-0.9,0.7-1.6,1.6-1.5c0.9,0,1.3,0.7,1.5,1.6l3,13.5h7.5v3.2h-9
	c-0.9,0-1.7-0.7-1.9-1.6l-1.5-7.4L35,58.8c-0.2,0.9-1,1.5-1.9,1.5c-0.8,0-1.6-0.6-1.8-1.4l-2.9-10.4l-1.5,4.6
	c-0.3,0.8-1,1.3-1.9,1.3h-5.9c0,0-6.1,0-6.1,0v3.2h8.7c0.1,0,1.5,1.3,1.6,1.3c3.7,2.9,7.7,6.2,11.2,8.4c1,0.7,4.2,2.8,4.2,2.8
	S42,68,43,67.4c3.5-2.2,9-5.3,12.6-8.4C66.8,49.2,62.6,33.8,54.2,31"/>
<path class="st1" d="M127.3,71.4V43.6c0-0.6-0.3-1.2-0.8-1.4l0,0c0,0,0,0-0.1,0l-8.4-4.6v-1.7h-3.4v2.7c0,0.6,0.3,1.2,0.9,1.5
	c0,0,0,0,0,0l7.5,4.1c0.5,0.3,0.8,0.8,0.9,1.4c0,0,0,0.1,0,0.1s0,0.1,0,0.1v2l-25.3,0v-2.1c0-0.6,0.3-1.2,0.9-1.5L107,40
	c0.5-0.3,0.9-0.9,0.9-1.5v-2.7h-3.4v1.7l-8.4,4.6h0c-0.5,0.3-0.9,0.9-0.9,1.5v27.8c0,0.9,0.8,1.7,1.7,1.7h28.7
	C126.6,73.1,127.3,72.3,127.3,71.4 M119.6,69.2c0,0.9-0.6,1.5-1.5,1.5c-0.7,0-1-0.3-1.3-0.7l-2.5-3.1l-2.5,3.1
	c-0.3,0.4-0.6,0.7-1.3,0.7c-0.9,0-1.5-0.6-1.5-1.5c0-0.3,0.2-0.8,0.4-1.1l3.1-3.5l-4.8-5.7v4.6c0,1-0.6,1.7-1.6,1.7
	c-1,0-1.6-0.7-1.6-1.7V51.4c0-1.1,0.6-1.7,1.7-1.7h3.8c3.5,0,5.3,1.7,5.3,4.9c0,2.1-1.5,3.7-3.9,4.1l3.1,3.6l2.1-2.6
	c0.4-0.4,0.7-0.6,1.2-0.6c0.8,0,1.6,0.7,1.6,1.5c0,0.4-0.2,0.8-0.5,1.1l-2.6,2.9l3.1,3.6C119.4,68.4,119.6,68.8,119.6,69.2
	 M111.8,54.3c0-1.2-0.8-2-2.1-2h-2.3v4h2.3C111,56.3,111.8,55.5,111.8,54.3 M101.1,32.4h20.3V24c0-1.9-1.5-3.4-3.4-3.4h-13.5
	c-1.9,0-3.4,1.5-3.4,3.4V32.4z"/>
<g>
	<path class="st2" d="M10.1,12.4V6c0-0.5,0-1.1,0.1-1.6C10,5.1,9.9,5.7,9.6,6.4l-1.7,5.9H5.7l-1.7-6C3.8,5.7,3.6,5,3.4,4.4
		c0.1,0.5,0.1,1,0.1,1.5v6.5H0.8V1.2h4.3l1.2,4.5c0.2,0.9,0.4,1.7,0.6,2.6c0.1-0.9,0.3-1.7,0.5-2.6l1.1-4.5h4.4v11.2H10.1z"/>
	<path class="st2" d="M21.8,11c-0.8,1.2-2.1,1.7-3.6,1.7c-2.9,0-4.2-1.9-4.2-4.7c0-2.6,1.4-4.6,4.2-4.6c2.9,0,3.9,2,3.9,4.6v0.7
		h-5.3c0,1,0.3,1.9,1.5,1.9c0.8,0,1.5-0.5,1.6-1.3l2.3,1C22.1,10.4,21.9,10.7,21.8,11z M18.1,5.3c-0.9,0-1.4,0.7-1.3,1.6v0h2.6V6.9
		C19.4,6.1,19,5.3,18.1,5.3z"/>
	<path class="st2" d="M28.2,12.4L28,11.6c-0.5,0.6-1.4,1-2.2,1c-2.5,0-3.1-2.6-3.1-4.6c0-2.1,0.6-4.5,3.1-4.5c0.8,0,1.5,0.4,2.1,0.8
		V0.5h3v11.8H28.2z M28,6c-0.2-0.2-0.6-0.4-0.9-0.4c-1.1,0-1.2,1.6-1.2,2.4c0,0.8,0,2.3,1.1,2.3c0.3,0,0.8-0.2,1-0.4V6z"/>
	<path class="st2" d="M32.3,2.7V0.5h3v2.2H32.3z M32.3,12.4V3.6h3v8.7H32.3z"/>
	<path class="st2" d="M44.2,10.4c-0.7,1.6-2.1,2.3-3.8,2.3c-3,0-4.2-1.9-4.2-4.7c0-2.6,1.5-4.6,4.2-4.6c1.5,0,2.8,0.6,3.5,2
		c0.1,0.3,0.3,0.6,0.3,0.9l-2.7,0.9c-0.1-0.6-0.5-1.4-1.2-1.4c-1.1,0-1.2,1.5-1.2,2.3c0,0.8,0.1,2.5,1.2,2.5c0.8,0,1.1-0.9,1.1-1.6
		l2.9,0.5C44.5,9.7,44.3,10,44.2,10.4z"/>
	<path class="st2" d="M50.4,12.4l-0.2-0.9c-0.6,0.6-1.6,1.1-2.5,1.1c-1.5,0-2.7-0.7-2.7-2.3c0-2.6,2.9-3.2,5-3.4V6.6
		c0-0.7-0.4-1.1-1.1-1.1c-0.7,0-1.1,0.4-1.3,1l-2.4-1c0.8-1.6,2.2-2.3,4-2.3c2.1,0,3.7,0.6,3.7,3v6.1H50.4z M50,8.6
		C49.2,8.6,48,8.8,48,9.8c0,0.5,0.3,0.7,0.8,0.7c0.5,0,0.9-0.3,1.3-0.5V8.6z"/>
	<path class="st2" d="M54.2,12.4V0.5h3v11.8H54.2z"/>
	<path class="st2" d="M67.4,9v2.7h-2.2V9h-2.5V7h2.5V4.3h2.2V7H70v2H67.4z"/>
	<path class="st2" d="M80,8.3h-1.4v4h-3.1V1.2h4.9c2.3,0,3.8,1,3.8,3.4C84.3,7.3,82.4,8.3,80,8.3z M79.7,3.6h-1.1v2.3h1.1
		c0.8,0,1.5-0.2,1.5-1.2C81.2,3.7,80.5,3.6,79.7,3.6z"/>
	<path class="st2" d="M90.1,12.4V6.6c0-0.6-0.2-1-0.8-1c-0.4,0-0.8,0.3-1.1,0.6v6.1h-3V0.5h3v3.9c0.7-0.7,1.5-1.1,2.5-1.1
		c1.9,0,2.4,1.3,2.4,2.9v6H90.1z"/>
	<path class="st2" d="M99.3,12.4l-0.2-0.9c-0.6,0.6-1.6,1.1-2.5,1.1c-1.5,0-2.7-0.7-2.7-2.3c0-2.6,2.9-3.2,5-3.4V6.6
		c0-0.7-0.4-1.1-1.1-1.1c-0.7,0-1.1,0.4-1.3,1l-2.4-1c0.8-1.6,2.2-2.3,4-2.3c2.1,0,3.7,0.6,3.7,3v6.1H99.3z M98.9,8.6
		c-0.8,0.1-2.1,0.2-2.1,1.3c0,0.5,0.3,0.7,0.8,0.7c0.5,0,0.9-0.3,1.3-0.5V8.6z"/>
	<path class="st2" d="M108.1,6.3c-0.9,0-1.6,0.8-2,1.5v4.6h-3V3.6h2.7l0.1,1.5c0.6-0.9,1.1-1.8,2.4-1.8c0.2,0,0.4,0,0.5,0.1v2.9
		C108.6,6.3,108.4,6.3,108.1,6.3z"/>
	<path class="st2" d="M119.2,12.4V6.9c0-0.6,0-1.2-0.7-1.2c-0.5,0-0.8,0.3-1.1,0.6v6.1h-3V6.9c0-0.6,0-1.2-0.7-1.2
		c-0.4,0-0.8,0.3-1.1,0.6v6.1h-3V3.6h2.7l0.1,1c0.8-0.7,1.7-1.2,2.8-1.2c1,0,1.5,0.4,2,1.2c0.7-0.7,1.7-1.2,2.7-1.2
		c1.6,0,2.3,0.9,2.3,2.4v6.6H119.2z"/>
	<path class="st2" d="M128.4,12.4l-0.2-0.9c-0.6,0.6-1.6,1.1-2.5,1.1c-1.5,0-2.7-0.7-2.7-2.3c0-2.6,2.9-3.2,4.9-3.4V6.6
		c0-0.7-0.4-1.1-1.1-1.1c-0.7,0-1.1,0.4-1.3,1l-2.4-1c0.8-1.6,2.2-2.3,4-2.3c2.1,0,3.7,0.6,3.7,3v6.1H128.4z M128.1,8.6
		c-0.8,0.1-2.1,0.2-2.1,1.3c0,0.5,0.3,0.7,0.8,0.7c0.5,0,0.9-0.3,1.3-0.5V8.6z"/>
	<path class="st2" d="M139.9,10.4c-0.7,1.6-2.1,2.3-3.8,2.3c-3,0-4.2-1.9-4.2-4.7c0-2.6,1.5-4.6,4.2-4.6c1.5,0,2.8,0.6,3.5,2
		c0.1,0.3,0.3,0.6,0.3,0.9l-2.7,0.9c-0.1-0.6-0.5-1.4-1.2-1.4c-1.1,0-1.2,1.5-1.2,2.3c0,0.8,0.1,2.5,1.2,2.5c0.8,0,1.1-0.9,1.1-1.6
		l2.9,0.5C140.2,9.7,140.1,10,139.9,10.4z"/>
	<path class="st2" d="M146.1,12c-0.5,1.4-1.2,3.1-2.8,3.5c-0.6,0.2-1.2,0.2-1.8,0.2c-0.4,0-0.8-0.1-1.2-0.1l0.2-2.3
		c0.4,0,0.8,0.1,1.2,0.1c1,0,1.2-0.4,1.6-1.2l-3.2-8.5h3l1.1,3.2c0.2,0.7,0.4,1.4,0.5,2.1c0.1-0.7,0.3-1.4,0.5-2.1l1.1-3.2h2.9
		L146.1,12z"/>
</g>
<rect class="st3" width="166.3" height="73.1"/>
</svg>
