<?xml version="1.0" encoding="utf-8"?>
<!-- Generator: Adobe Illustrator 22.1.0, SVG Export Plug-In . SVG Version: 6.00 Build 0)  -->
<svg version="1.1" id="Layer_1" xmlns="http://www.w3.org/2000/svg" xmlns:xlink="http://www.w3.org/1999/xlink" x="0px" y="0px"
	 viewBox="0 0 55.6 50.2" style="enable-background:new 0 0 55.6 50.2;" xml:space="preserve">
<style type="text/css">
	.st0{clip-path:url(#SVGID_2_);fill:#0094D3;}
</style>
<g>
	<defs>
		<rect id="SVGID_1_" width="55.6" height="50.2"/>
	</defs>
	<clipPath id="SVGID_2_">
		<use xlink:href="#SVGID_1_"  style="overflow:visible;"/>
	</clipPath>
	<path class="st0" d="M2.5,33.1c-0.8,0.9-1.4,2.1-1.4,3.4c0,2,1.2,3.7,2.8,4.4c-0.8,1-1.2,2.2-1.2,3.4c0.1,2.6,2.3,4.7,5,4.7h17.3
		c3.8,0,7.5-1.2,10.5-3.5c0.3-0.2,0.4-0.5,0.4-0.9V24c0-0.2-0.1-0.4-0.2-0.6l-7.5-11.8l-2-9.8c-0.2-1-1.1-1.8-2.1-1.8
		c-2.3,0-4.4,1-5.8,2.7c-1.4,1.7-2,4-1.6,6.2l1.5,7.4H6c-2.7,0-4.9,2.2-4.9,4.9c0,1.3,0.5,2.5,1.4,3.4C1,25.5,0,27.1,0,28.9
		C0,30.7,1,32.3,2.5,33.1"/>
	<path class="st0" d="M39.2,19.6h14.2c1.2,0,2.2,1,2.2,2.2V48c0,1.2-1,2.2-2.2,2.2H39.2c-1.2,0-2.2-1-2.2-2.2V21.8
		C37.1,20.6,38,19.6,39.2,19.6"/>
</g>
</svg>
